HIERARCHY
ROOT Hips
{
	OFFSET -3.958830 18.904000 13.208200
	CHANNELS 6 Xposition Yposition Zposition Zrotation Yrotation Xrotation 
	JOINT LHipJoint
	{
		OFFSET 0.000000 0.000000 0.000000
		CHANNELS 3 Zrotation Yrotation Xrotation
		JOINT LeftUpLeg
		{
			OFFSET 1.800000 -1.400000 0.085000
			CHANNELS 3 Zrotation Yrotation Xrotation
			JOINT LeftLeg
			{
				OFFSET 2.215000 -6.000000 0.000000
				CHANNELS 3 Zrotation Yrotation Xrotation
				JOINT LeftFoot
				{
					OFFSET 2.500000 -6.900000 0.000000
					CHANNELS 3 Zrotation Yrotation Xrotation
					JOINT LeftToeBase
					{
						OFFSET 0.200000 -0.500000 1.950000
						CHANNELS 3 Zrotation Yrotation Xrotation
						End Site
						{
							OFFSET 0.000000 0.000000 0.000000
						}
					}
				}
			}
		}
	}
	JOINT RHipJoint
	{
		OFFSET 0.000000 0.000000 0.000000
		CHANNELS 3 Zrotation Yrotation Xrotation
		JOINT RightUpLeg
		{
			OFFSET -1.800000 -1.400000 0.085000
			CHANNELS 3 Zrotation Yrotation Xrotation
			JOINT RightLeg
			{
				OFFSET -2.215000 -6.000000 0.000000
				CHANNELS 3 Zrotation Yrotation Xrotation
				JOINT RightFoot
				{
					OFFSET -2.500000 -6.900000 0.000000
					CHANNELS 3 Zrotation Yrotation Xrotation
					JOINT RightToeBase
					{
						OFFSET -0.200000 -0.500000 1.950000
						CHANNELS 3 Zrotation Yrotation Xrotation
						End Site
						{
							OFFSET 0.000000 0.000000 0.000000
						}
					}
				}
			}
		}
	}
	JOINT LowerBack
	{
		OFFSET 0.000000 0.000000 0.000000
		CHANNELS 3 Zrotation Yrotation Xrotation
		JOINT Spine
		{
			OFFSET -0.087000 1.940000 -0.288900
			CHANNELS 3 Zrotation Yrotation Xrotation
			JOINT Spine1
			{
				OFFSET 0.000000 1.950000 0.060000
				CHANNELS 3 Zrotation Yrotation Xrotation
				JOINT Neck
				{
					OFFSET 0.000000 0.000000 0.000000
					CHANNELS 3 Zrotation Yrotation Xrotation
					JOINT Neck1
					{
						OFFSET 0.000000 1.600000 0.340000
						CHANNELS 3 Zrotation Yrotation Xrotation
						JOINT Head
						{
							OFFSET 0.000000 1.667000 -0.240000
							CHANNELS 3 Zrotation Yrotation Xrotation
							End Site
							{
								OFFSET 0.000000 0.000000 0.000000
							}
						}
					}
				}
				JOINT LeftShoulder
				{
					OFFSET 0.000000 0.000000 0.000000
					CHANNELS 3 Zrotation Yrotation Xrotation
					JOINT LeftArm
					{
						OFFSET 2.700000 1.550000 -0.730000
						CHANNELS 3 Zrotation Yrotation Xrotation
						JOINT LeftForeArm
						{
							OFFSET 5.450000 0.000000 0.000000
							CHANNELS 3 Zrotation Yrotation Xrotation
							JOINT LeftHand
							{
								OFFSET 3.450000 0.000000 0.000000
								CHANNELS 3 Zrotation Yrotation Xrotation
								JOINT LeftHandIndex1
								{
									OFFSET 0.750000 0.000000 0.000000
									CHANNELS 3 Zrotation Yrotation Xrotation
									End Site
									{
										OFFSET 0.000000 0.000000 0.000000
									}
								}
							}
						}
					}
				}
				JOINT RightShoulder
				{
					OFFSET 0.000000 0.000000 0.000000
					CHANNELS 3 Zrotation Yrotation Xrotation
					JOINT RightArm
					{
						OFFSET -2.700000 1.550000 -0.730000
						CHANNELS 3 Zrotation Yrotation Xrotation
						JOINT RightForeArm
						{
							OFFSET -5.450000 0.000000 0.000000
							CHANNELS 3 Zrotation Yrotation Xrotation
							JOINT RightHand
							{
								OFFSET -3.450000 0.000000 0.000000
								CHANNELS 3 Zrotation Yrotation Xrotation
								JOINT RightHandIndex1
								{
									OFFSET -0.750000 0.000000 0.000000
									CHANNELS 3 Zrotation Yrotation Xrotation
									End Site
									{
										OFFSET 0.000000 0.000000 0.000000
									}
								}
							}
						}
					}
				}
			}
		}
	}
}
MOTION
Frames: 8
Frame Time: 0.016667
-0.492130 18.479480 -3.217010 -6.536099 12.614243 -2.158994 -15.202274 12.937181 3.389220 -1.064337 -6.337430 -21.708163 -3.880187 7.108340 35.548916 -0.865262 6.747211 2.248399 0.167520 -0.052470 -0.032620 18.322587 -9.638844 3.990100 -3.331418 6.630984 -42.266787 4.365654 -4.988985 22.924093 -0.299974 -2.700333 3.073738 0.154560 0.771490 0.562410 -3.792823 -2.476729 -8.207557 13.530335 -6.338295 36.252506 -1.977046 -2.942355 16.445189 2.737925 6.219615 -5.433135 7.980897 -4.501226 46.031200 -3.572970 -1.092850 -19.060690 -24.149474 -13.908988 1.055320 30.100898 9.696624 3.563447 6.074616 -6.560968 -1.397382 -3.959320 2.892990 0.973660 0.309170 0.180180 0.281770 20.374586 6.177308 3.064268 -18.102111 -15.473849 -1.136850 -16.632059 29.303623 -2.473703 1.947142 -1.513017 -0.532280 0.698710 0.436130 -0.070050 
-0.496430 18.446920 -3.233040 -6.077893 11.574389 -3.070268 -15.320486 13.288791 3.447626 -0.795714 -6.235323 -20.440076 -4.230333 7.623139 36.763939 -0.699057 7.037699 2.155521 0.088590 -0.133220 -0.102810 18.156023 -9.527054 3.866442 -2.685413 6.103525 -39.520423 5.698060 -4.093746 15.749502 -0.174072 -1.904740 3.422330 0.073430 0.765630 0.484950 -3.373701 -3.276755 -8.240814 10.586608 -5.664450 39.841479 -0.427564 -2.518051 16.381544 2.136222 4.113673 -6.672763 3.657012 -2.298559 47.275631 -0.529550 -1.012600 -18.991010 -22.738910 -12.739042 2.091578 27.079535 11.700907 3.511267 7.565421 -5.746483 -1.369961 -3.956426 2.758555 0.986910 0.246320 0.163680 0.266420 19.541549 7.686142 3.814092 -18.552573 -15.674027 -1.084047 -16.492477 25.184020 -1.765895 2.004273 -1.368147 -0.543280 0.707100 0.453020 -0.052290 
-0.547350 18.377670 -3.277990 -4.480850 9.599071 -5.740654 -15.637501 14.012271 3.364128 0.209126 -5.489244 -16.975051 -4.602415 8.608240 38.370258 -0.434544 7.605187 1.981093 -0.080790 -0.282400 -0.235580 17.820099 -9.070448 3.675918 -1.771449 5.118090 -34.076000 6.503499 -2.585692 3.793763 -0.061955 -1.296695 3.715636 -0.046010 0.785590 0.404770 -2.404093 -5.250026 -8.221944 2.412326 -2.442480 48.533925 3.703271 -1.183268 16.900254 1.319394 0.338581 -8.721963 -3.387340 0.476822 42.864801 0.796220 -0.914230 -19.544960 -17.683689 -8.420234 3.321682 18.815884 13.369419 2.881229 10.077730 -2.807496 -1.295447 -4.049918 2.507026 0.961470 0.201120 0.128220 0.220860 15.085725 8.642823 5.401197 -15.043980 -13.854675 -2.210881 -19.906465 19.535499 -1.546133 2.062540 -1.093874 -0.563970 0.718700 0.519170 -0.012770 
-0.524140 18.248610 -3.319620 -2.612743 6.279698 -6.215311 -15.890466 14.192457 3.192707 0.912841 -4.839887 -14.841882 -6.349660 10.079895 39.065157 -0.295865 8.224434 1.790777 -0.172660 -0.436330 -0.276620 17.656518 -8.300452 3.871220 -2.148421 5.146821 -31.501043 9.223744 -1.339738 -7.855829 -0.126698 -1.614036 3.638759 -0.132420 0.815450 0.417800 -1.747058 -6.630477 -8.395145 -3.913784 2.127385 52.321478 7.239383 1.070355 17.453306 1.124763 -1.263746 -10.361737 -5.741743 1.112402 39.046559 -0.462070 -0.632210 -19.377790 -13.137806 -5.687870 4.243698 10.356801 13.557771 1.908584 11.825373 0.396144 -1.224677 -4.204984 2.350219 0.996060 0.212210 0.091670 0.190310 10.282936 9.070009 7.130235 -12.523512 -12.808897 -2.037108 -18.365422 12.264776 -0.581233 2.056820 -0.937260 -0.604230 0.702430 0.585870 -0.038250 
-0.422590 18.114340 -3.350830 -1.453512 5.421610 -3.355580 -15.847498 13.757082 3.187028 -0.549799 -5.483542 -16.531478 -5.796215 9.954921 40.397532 -0.159314 8.157806 1.756099 -0.173740 -0.516530 -0.242480 17.743587 -7.995488 4.357286 -3.126798 5.870675 -34.788591 10.510623 -0.322112 -14.760463 -0.297074 -1.778907 3.524789 -0.293840 0.662610 0.495980 -1.913721 -6.149425 -8.758710 -3.907449 2.265323 50.105505 6.124474 1.173622 16.092513 1.236505 -0.661482 -13.125081 -6.736737 1.070448 48.611311 2.344530 -1.869430 -19.174140 -14.214292 -9.885061 6.807934 11.945970 17.419383 1.655247 13.765948 3.526364 -1.018670 -4.163927 2.351855 1.120280 0.066310 0.222810 0.158340 11.529711 12.297687 9.214463 -10.098738 -17.378773 -3.224343 -23.281441 13.095906 -0.768508 2.170419 -0.934017 -0.487540 0.542510 0.574920 -0.050920 
-0.358120 17.935370 -3.364710 -1.595440 6.405866 0.203816 -15.829126 13.419771 3.322823 -0.553977 -6.569708 -19.885714 -5.749631 10.059686 41.823341 -0.088494 8.134304 1.709297 -0.214190 -0.577990 -0.160960 17.801344 -7.764438 4.676639 -3.199791 6.888079 -40.434608 10.480004 -0.017424 -15.986687 -0.327578 -1.472881 3.612724 -0.406570 0.495090 0.429110 -2.009314 -5.829966 -9.057676 -3.012711 1.618710 47.127820 6.277722 1.081682 12.778161 1.452659 0.959906 -15.245892 -5.024511 0.718551 58.696431 3.902240 -1.529440 -19.599130 -14.156975 -12.930582 8.284058 16.364653 20.790222 2.531184 9.696355 0.546051 -1.132522 -3.923121 2.240844 1.251510 -0.079950 0.342560 0.087300 11.493885 13.703027 10.181813 -11.175134 -21.930241 -2.375112 -20.172869 17.082127 -0.256022 2.218815 -0.801944 -0.474840 0.505360 0.537530 -0.107160 
-0.267700 17.784790 -3.350620 -2.586138 7.991058 2.288172 -15.767146 13.302627 3.420390 -0.650893 -7.035536 -21.391234 -5.200763 9.613159 41.991955 -0.093556 7.880803 1.753787 -0.183240 -0.562610 -0.082420 17.869326 -7.799466 4.799021 -2.479928 7.561954 -45.035216 9.076010 -0.579884 -12.686755 -0.324485 -0.977047 3.753896 -0.467800 0.350480 0.405240 -2.196086 -5.519139 -9.146645 -0.445665 -0.252934 45.490300 6.096779 0.517910 9.905913 1.805572 1.152561 -17.434124 -5.541705 1.532800 67.364922 5.192630 -1.080460 -20.363000 -12.945957 -14.540328 9.535837 14.603701 21.344121 1.975548 10.149692 -2.106712 -1.002349 -3.738847 2.222071 1.388130 -0.212700 0.469800 0.072870 9.972051 14.671347 11.157351 -9.775037 -24.570077 -2.608056 -20.088292 19.457177 -0.116575 2.247326 -0.729428 -0.446720 0.462790 0.475110 -0.141400 
-0.167060 17.684290 -3.330210 -2.033024 10.795301 3.030530 -15.706904 13.229619 3.592449 -2.568946 -7.850330 -21.682184 -3.745158 8.692675 43.151753 0.111578 7.579950 1.844577 -0.118330 -0.421990 -0.022480 17.926013 -7.948112 4.762268 -3.130480 6.743061 -48.711457 6.684027 -1.520952 -6.901227 -0.348517 -0.586411 3.886757 -0.515100 0.178930 0.422390 -2.383717 -5.230697 -9.161174 1.043858 -2.221431 45.837251 5.380815 -0.428097 6.053731 1.956572 2.625000 -19.654077 -2.307362 0.040187 74.425627 3.424090 0.073260 -19.135500 -12.054508 -17.198757 10.556447 16.505276 21.741271 1.774492 6.258227 -4.999987 -0.815330 -3.460752 2.273483 1.391470 -0.307930 0.647340 0.111690 8.674299 15.591012 12.468930 -5.542721 -26.147745 -3.736019 -23.320749 20.744432 -0.460502 2.354781 -0.744641 -0.295010 0.355840 0.321610 -0.091160 
